<svg width="36" height="40" viewBox="0 0 36 40" fill="none" xmlns="http://www.w3.org/2000/svg">
<path d="M6.47607 11.6667C6.47607 10.7462 7.22227 10 8.14274 10H28.4285C29.3489 10 30.0951 10.7462 30.0951 11.6667C30.0951 12.5871 29.3489 13.3333 28.4285 13.3333H8.14274C7.22227 13.3333 6.47607 12.5871 6.47607 11.6667ZM6.47607 20C6.47607 19.0795 7.22227 18.3333 8.14274 18.3333H28.4285C29.3489 18.3333 30.0951 19.0795 30.0951 20C30.0951 20.9205 29.3489 21.6667 28.4285 21.6667H8.14274C7.22227 21.6667 6.47607 20.9205 6.47607 20ZM6.47607 28.3333C6.47607 27.4129 7.22227 26.6667 8.14274 26.6667H28.4285C29.3489 26.6667 30.0951 27.4129 30.0951 28.3333C30.0951 29.2538 29.3489 30 28.4285 30H8.14274C7.22227 30 6.47607 29.2538 6.47607 28.3333Z" fill="#475467"/>
</svg>
