<svg width="32" height="32" viewBox="0 0 32 32" fill="none" xmlns="http://www.w3.org/2000/svg">
<mask id="mask0_19819_101515" style="mask-type:alpha" maskUnits="userSpaceOnUse" x="0" y="0" width="32" height="32">
<rect width="32" height="32" fill="#E5E5E5"/>
</mask>
<g mask="url(#mask0_19819_101515)">
</g>
<path d="M10.0003 19.334C7.89366 19.334 6.12966 20.7473 5.55099 22.6673H2.66699V25.334H5.55099C6.12966 27.254 7.89366 28.6673 10.0003 28.6673C12.107 28.6673 13.871 27.254 14.4497 25.334H29.3337V22.6673H14.4497C13.871 20.7473 12.107 19.334 10.0003 19.334ZM10.0003 26.0007C8.89766 26.0007 8.00033 25.1033 8.00033 24.0007C8.00033 22.898 8.89766 22.0007 10.0003 22.0007C11.103 22.0007 12.0003 22.898 12.0003 24.0007C12.0003 25.1033 11.103 26.0007 10.0003 26.0007ZM22.0003 11.334C19.8937 11.334 18.1297 12.7473 17.551 14.6673H2.66699V17.334H17.551C18.1297 19.254 19.8937 20.6673 22.0003 20.6673C24.107 20.6673 25.871 19.254 26.4497 17.334H29.3337V14.6673H26.4497C25.871 12.7473 24.107 11.334 22.0003 11.334ZM22.0003 18.0007C20.8977 18.0007 20.0003 17.1033 20.0003 16.0007C20.0003 14.898 20.8977 14.0007 22.0003 14.0007C23.103 14.0007 24.0003 14.898 24.0003 16.0007C24.0003 17.1033 23.103 18.0007 22.0003 18.0007Z" fill="#1F1F1F"/>
<path d="M17.1163 6.66732C16.5377 4.74732 14.7737 3.33398 12.667 3.33398C10.5603 3.33398 8.79633 4.74732 8.21766 6.66732H2.66699V9.33398H8.21766C8.79633 11.254 10.5603 12.6673 12.667 12.6673C14.7737 12.6673 16.5377 11.254 17.1163 9.33398H29.5003V6.66732H17.1163ZM12.667 10.0007C11.5643 10.0007 10.667 9.10332 10.667 8.00065C10.667 6.89798 11.5643 6.00065 12.667 6.00065C13.7697 6.00065 14.667 6.89798 14.667 8.00065C14.667 9.10332 13.7697 10.0007 12.667 10.0007Z" fill="#1F1F1F"/>
</svg>
